<svg xmlns="http://www.w3.org/2000/svg">
    <defs>
       <symbol id="flag-australia" viewBox="0 0 32 32">
            <path fill="#41479b" style="fill: var(--color1, #41479b)" d="M31.481 23.37h-29.268c-0.294 0-0.525-0.238-0.525-0.525v-18.81c0-0.294 0.238-0.525 0.525-0.525h29.262c0.294 0 0.525 0.238 0.525 0.525v18.81c0.006 0.288-0.231 0.525-0.519 0.525z"></path>
            <path fill="#f5f5f5" style="fill: var(--color2, #f5f5f5)" d="M16.322 3.504h-0.906l-4.845 3.169v-3.169h-2.613v3.169l-4.838-3.169h-0.906c-0.288 0-0.525 0.231-0.525 0.525v0.413l4.157 2.719h-4.157v2.613h4.157l-4.157 2.726v0.413c0 0.288 0.231 0.525 0.525 0.525h0.906l4.845-3.169v3.169h2.613v-3.169l4.845 3.169h0.906c0.288 0 0.525-0.231 0.525-0.525v-0.413l-4.163-2.719h4.157v-2.613h-4.157l4.157-2.719v-0.413c0-0.294-0.231-0.531-0.525-0.531z"></path>
            <path fill="#ff4b55" style="fill: var(--color3, #ff4b55)" d="M16.847 7.686h-6.795v-4.182h-1.569v4.182h-6.795v1.569h6.795v4.182h1.569v-4.182h6.795v-1.569z"></path>
            <path fill="#ff4b55" style="fill: var(--color3, #ff4b55)" d="M7.439 7.167l-5.501-3.576c-0.144 0.094-0.25 0.25-0.25 0.431v0.025l4.788 3.107h0.963v0.012z"></path>
            <path fill="#ff4b55" style="fill: var(--color3, #ff4b55)" d="M11.533 7.167l5.232-3.394c-0.094-0.156-0.25-0.263-0.444-0.263h-0.113l-5.639 3.657h0.963z"></path>
            <path fill="#ff4b55" style="fill: var(--color3, #ff4b55)" d="M6.989 9.78l-5.226 3.388c0.088 0.156 0.25 0.269 0.45 0.269h0.1l5.639-3.657h-0.963z"></path>
            <path fill="#ff4b55" style="fill: var(--color3, #ff4b55)" d="M16.841 12.956l-4.895-3.176h-0.963l5.557 3.607c0.169-0.075 0.281-0.238 0.3-0.431z"></path>
            <path fill="#f5f5f5" style="fill: var(--color2, #f5f5f5)" d="M9.427 16.287l0.394 1.3 1.263-0.506c0.106-0.044 0.206 0.081 0.138 0.175l-0.775 1.119 1.181 0.675c0.1 0.056 0.069 0.213-0.050 0.219l-1.356 0.094 0.213 1.344c0.019 0.113-0.125 0.181-0.2 0.1l-0.919-0.994-0.919 1c-0.081 0.087-0.219 0.019-0.2-0.1l0.213-1.344-1.356-0.094c-0.119-0.006-0.15-0.163-0.050-0.219l1.182-0.675-0.775-1.119c-0.069-0.094 0.031-0.219 0.138-0.175l1.263 0.506 0.394-1.3c0.031-0.119 0.188-0.119 0.225-0.006z"></path>
            <path fill="#f5f5f5" style="fill: var(--color2, #f5f5f5)" d="M24.974 7.023l0.194 0.638 0.619-0.244c0.050-0.019 0.1 0.037 0.069 0.088l-0.375 0.55 0.575 0.331c0.050 0.025 0.031 0.1-0.025 0.106l-0.663 0.044 0.1 0.656c0.006 0.056-0.062 0.088-0.1 0.050l-0.45-0.488-0.45 0.488c-0.038 0.044-0.106 0.006-0.1-0.050l0.1-0.656-0.663-0.044c-0.056-0.006-0.075-0.081-0.025-0.106l0.575-0.331-0.375-0.55c-0.031-0.044 0.019-0.106 0.069-0.088l0.619 0.244 0.194-0.638c0.019-0.050 0.1-0.050 0.113 0z"></path>
            <path fill="#f5f5f5" style="fill: var(--color2, #f5f5f5)" d="M20.679 11.912l0.194 0.638 0.619-0.244c0.050-0.019 0.1 0.037 0.069 0.088l-0.375 0.55 0.575 0.331c0.050 0.025 0.031 0.1-0.025 0.106l-0.663 0.044 0.1 0.656c0.006 0.056-0.063 0.088-0.1 0.050l-0.45-0.488-0.45 0.488c-0.038 0.044-0.106 0.006-0.1-0.050l0.1-0.656-0.663-0.044c-0.056-0.006-0.075-0.081-0.025-0.106l0.575-0.331-0.375-0.55c-0.031-0.044 0.019-0.106 0.069-0.088l0.619 0.244 0.194-0.638c0.019-0.056 0.094-0.056 0.113 0z"></path>
            <path fill="#f5f5f5" style="fill: var(--color2, #f5f5f5)" d="M29.043 9.818l0.194 0.638 0.619-0.244c0.050-0.019 0.1 0.037 0.069 0.088l-0.375 0.55 0.575 0.331c0.050 0.025 0.031 0.1-0.025 0.106l-0.663 0.044 0.1 0.656c0.006 0.056-0.063 0.088-0.1 0.050l-0.45-0.488-0.45 0.488c-0.038 0.044-0.106 0.006-0.1-0.050l0.1-0.656-0.663-0.044c-0.056-0.006-0.075-0.081-0.025-0.106l0.575-0.331-0.375-0.55c-0.031-0.044 0.019-0.106 0.069-0.088l0.619 0.244 0.194-0.638c0.019-0.056 0.094-0.056 0.113 0z"></path>
            <path fill="#f5f5f5" style="fill: var(--color2, #f5f5f5)" d="M24.974 18.182l0.194 0.638 0.619-0.244c0.050-0.019 0.1 0.038 0.069 0.087l-0.375 0.55 0.575 0.331c0.050 0.025 0.031 0.1-0.025 0.106l-0.663 0.044 0.1 0.656c0.006 0.056-0.062 0.088-0.1 0.050l-0.45-0.488-0.45 0.488c-0.038 0.044-0.106 0.006-0.1-0.050l0.1-0.656-0.663-0.044c-0.056-0.006-0.075-0.081-0.025-0.106l0.575-0.331-0.375-0.55c-0.031-0.044 0.019-0.106 0.069-0.087l0.619 0.244 0.194-0.638c0.019-0.056 0.1-0.056 0.113 0z"></path>
            <path fill="#f5f5f5" style="fill: var(--color2, #f5f5f5)" d="M26.468 13.056l-0.156 0.463-0.488 0.006c-0.063 0-0.088 0.081-0.038 0.119l0.394 0.288-0.15 0.469c-0.019 0.063 0.050 0.113 0.1 0.075l0.4-0.288 0.4 0.288c0.050 0.038 0.119-0.012 0.1-0.075l-0.15-0.469 0.394-0.288c0.050-0.037 0.025-0.119-0.038-0.119l-0.488-0.006-0.156-0.463c-0.019-0.062-0.106-0.062-0.125 0z"></path>
            <path fill="#68613d" style="fill: var(--color4, #68613d)" d="M1.194 30.509c-0.656 0-1.194-0.538-1.194-1.194v-26.636c0-0.656 0.531-1.188 1.188-1.188h0.012c0.663 0 1.194 0.538 1.194 1.194v26.63c-0.006 0.656-0.538 1.194-1.2 1.194z"></path>
        </symbol>
        <symbol id="secure" viewBox="0 0 29 32">
            <path fill="#2FC423" d="M28.561 5.036l-14.245-4.859-14.245 4.859s-1.583 18.924 14.245 26.787c15.828-7.864 14.245-26.787 14.245-26.787z"></path>
            <path fill="#fff" style="fill: var(--color2, #fff)" d="M14.316 29.22c-5.347-2.987-8.979-7.763-10.8-14.211-0.719-2.483-1.149-5.34-1.184-8.292l-0-0.020 11.984-4.086 11.984 4.086c-0.035 2.972-0.465 5.829-1.24 8.54l0.056-0.229c-1.821 6.447-5.452 11.223-10.8 14.21z"></path>
            <path fill="#68613d" style="fill: var(--color3, #68613d)" d="M14.316 19.917c3.149 0 5.701-2.553 5.701-5.701s-2.553-5.701-5.701-5.701v0c-3.149 0-5.701 2.553-5.701 5.701s2.553 5.701 5.701 5.701v0z"></path>
            <path fill="#f6efea" style="fill: var(--color4, #f6efea)" d="M13.53 16.926c-0 0-0 0-0 0-0.164 0-0.312-0.069-0.417-0.179l-0-0-1.702-1.8c-0.118-0.106-0.192-0.259-0.192-0.43 0-0.319 0.258-0.577 0.577-0.577 0.182 0 0.344 0.084 0.45 0.216l0.001 0.001 1.238 1.308 2.862-3.736c0.106-0.138 0.271-0.225 0.457-0.225 0.318 0 0.576 0.258 0.576 0.576 0 0.132-0.045 0.254-0.12 0.352l0.001-0.001-3.273 4.27c-0.106 0.138-0.271 0.225-0.456 0.226h-0z"></path>
        </symbol>
        <symbol id="dollar" viewBox="0 0 32 32">
            <path fill="#68613d" d="M32 20.916v3.643c0 1.237-3.3 2.268-7.355 2.268s-7.287-0.997-7.287-2.234v-0.412l-0.069-2.887h0.034c0.55 1.066 3.575 1.89 7.218 1.89s7.39-1.031 7.39-2.269l0.069-0z"></path>
            <path fill="#2FC423"  d="M24.438 7.373v3.609h-0.069c0 1.272-3.403 2.269-7.424 2.269-1.547 0.034-3.128-0.137-4.64-0.516l-0.069 0.069c-0.756-0.619-1.615-1.1-2.543-1.409v-0.069l-0.103-3.815c0.241 1.169 3.437 2.097 7.321 2.097s7.459-0.997 7.459-2.234h0.069z"></path>
            <path fill="#fedb41"  d="M24.438 7.442c0 1.237-3.403 2.234-7.459 2.234s-7.115-0.928-7.355-2.097c0-0.034-0.034-0.103-0.034-0.138 0-1.237 3.3-2.269 7.39-2.269 4.090-0.034 7.459 0.997 7.459 2.269z"></path>
            <path fill="#2FC423" d="M17.323 21.294l-0.034-0.756-0.069-3.093c0.241 1.169 3.437 2.097 7.321 2.097s7.321-0.997 7.424-2.2h0.034v3.575h-0.069c0 1.237-3.334 2.269-7.39 2.269s-6.668-0.825-7.218-1.89z"></path>
            <path fill="#68613d" d="M12.408 23.597c0.928-0.859 1.65-1.959 2.028-3.162h0.172c0.756 0.069 1.512 0.103 2.337 0.103h0.344v0.756l0.069 2.887h-0.378c-1.512 0.034-2.99-0.137-4.468-0.481l-0.103-0.103z"></path>
            <path fill="#2FC423"  d="M17.323 17.169v0.172l0.069 3.197h-0.344c-0.859 0-1.65-0.034-2.406-0.103h-0.172c0.241-0.722 0.344-1.478 0.344-2.234 0-0.516-0.069-0.997-0.172-1.478h0.172c0.722 0.069 1.444 0.103 2.234 0.103l0.309 0.172c-0.034 0.069-0.034 0.137-0.034 0.172z"></path>
            <path fill="#68613d"  d="M12.305 12.735c1.512 0.378 3.093 0.55 4.64 0.516 4.021 0 7.424-0.997 7.424-2.269h0.069v4.056c-3.747 0-6.806 0.894-7.184 2.028l-0.309-0.172c-0.756 0-1.478-0.034-2.165-0.103h-0.172c-0.309-1.581-1.134-2.99-2.372-4.021l0.069-0.034z"></path>
            <path fill="#fff"  d="M14.677 16.791c-0.344-1.581-1.203-3.025-2.44-4.090-0.756-0.687-1.65-1.169-2.612-1.444-0.687-0.241-1.444-0.344-2.165-0.344-4.090-0.034-7.424 3.231-7.459 7.321s3.231 7.424 7.321 7.459c1.89 0 3.678-0.687 5.087-1.959 0.962-0.894 1.684-2.028 2.062-3.265 0.241-0.722 0.344-1.444 0.344-2.2 0-0.481-0.137-0.997-0.137-1.478z"></path>
            <path fill="#fedb41"  d="M31.966 17.272v0.069c-0.103 1.203-3.437 2.2-7.424 2.2s-7.081-0.928-7.321-2.097v-0.172c0-0.069 0-0.137 0.034-0.206 0.378-1.134 3.437-2.028 7.184-2.028h0.103c4.056-0 7.424 0.997 7.424 2.234z"></path>
            <path fill="#2FC423"  d="M7.459 17.375c-0.619 0-1.134-0.516-1.134-1.134s0.516-1.134 1.134-1.134c0.619 0 1.134 0.516 1.134 1.134 0 0.378 0.309 0.687 0.687 0.687s0.687-0.309 0.687-0.687c0-1.1-0.756-2.097-1.822-2.406v-0.275c0-0.378-0.309-0.687-0.687-0.687s-0.687 0.309-0.687 0.687v0.275c-1.1 0.275-1.856 1.272-1.822 2.406 0 1.375 1.134 2.509 2.509 2.509 0.619 0 1.134 0.516 1.134 1.134s-0.516 1.134-1.134 1.134c-0.619 0-1.134-0.516-1.134-1.134 0-0.378-0.309-0.687-0.687-0.687s-0.687 0.309-0.687 0.687c0 1.134 0.756 2.097 1.822 2.406v0.55c0 0.378 0.309 0.687 0.687 0.687s0.687-0.309 0.687-0.687v-0.55c1.34-0.378 2.097-1.787 1.684-3.128-0.309-1.031-1.272-1.787-2.372-1.787z"></path>
        </symbol>
    </defs>
</svg>
